<svg xmlns="http://www.w3.org/2000/svg" viewBox="0 0 276.61 202.75"><defs><style>.cls-1{fill:#aceeff;}.cls-1,.cls-4{stroke:#ccc;}.cls-1,.cls-2{stroke-miterlimit:10;}.cls-1,.cls-4,.cls-5,.cls-6,.cls-7,.cls-8{stroke-width:11px;}.cls-2{fill:#57c954;stroke:#bfffb8;}.cls-2,.cls-3{stroke-width:12px;}.cls-3,.cls-4,.cls-5,.cls-6,.cls-7,.cls-8{fill:none;stroke-linecap:round;stroke-linejoin:round;}.cls-3{stroke:#339776;}.cls-5,.cls-6,.cls-7,.cls-8{stroke:#bf4c50;}.cls-6{stroke-dasharray:24.05 24.05;}.cls-7{stroke-dasharray:23.02 23.02;}.cls-8{stroke-dasharray:17.1 17.1;}.cls-9{fill:#ff8100;}</style></defs><g id="Layer_2" data-name="Layer 2"><g id="Layer_1-2" data-name="Layer 1"><path class="cls-1" d="M6,147C6,73.9,65.23,5.5,138.3,5.5S270.61,73.9,270.61,147"/><path class="cls-2" d="M270.61,145c0,21-58.15,51.74-132.31,51.74S6,166,6,145s58.15-38,132.3-38S270.61,124,270.61,145Z"/><path class="cls-3" d="M7.2,143.42c0-19.95,57.62-36.12,131.1-36.12s131.1,16.17,131.1,36.12"/><path class="cls-4" d="M6,147C6,73.9,65.23,5.5,138.3,5.5S270.61,73.9,270.61,147"/><polyline class="cls-5" points="213.14 46.95 213.51 35.96 206.19 44.16"/><line class="cls-6" x1="190.17" y1="62.1" x2="134.1" y2="124.89"/><polyline class="cls-5" points="126.09 133.86 118.76 142.06 129.76 142.22"/><line class="cls-7" x1="152.78" y1="142.55" x2="187.3" y2="143.05"/><polyline class="cls-5" points="198.81 143.21 209.8 143.37 210.18 132.38"/><line class="cls-8" x1="210.77" y1="115.29" x2="212.84" y2="55.49"/><circle class="cls-9" cx="213.58" cy="28.26" r="21.71"/></g></g></svg>