<svg xmlns="http://www.w3.org/2000/svg" xmlns:xlink="http://www.w3.org/1999/xlink" viewBox="0 0 4929.5 1948"><defs><style>.cls-1,.cls-2,.cls-3,.cls-4,.cls-5{fill:none;}.cls-2{stroke:#f7dc6f;}.cls-2,.cls-3,.cls-4,.cls-5,.cls-6{stroke-miterlimit:10;}.cls-2,.cls-3,.cls-4,.cls-5{stroke-width:40px;}.cls-3{stroke:#f8c471;}.cls-4{stroke:#ff838a;}.cls-5{stroke:#b1f1ee;}.cls-6{fill:url(#New_Pattern_Swatch_1);stroke:url(#New_Pattern_Swatch_1);}</style><pattern id="New_Pattern_Swatch_1" data-name="New Pattern Swatch 1" width="722.66" height="788.08" patternUnits="userSpaceOnUse" viewBox="0 0 722.66 788.08"><rect class="cls-1" width="722.66" height="788.08"/><circle class="cls-2" cx="658.68" cy="741.9" r="48.94"/><circle class="cls-3" cx="476.78" cy="683.5" r="69.44"/><circle class="cls-4" cx="491.19" cy="883.57" r="81.53"/><circle class="cls-2" cx="-63.98" cy="741.9" r="48.94"/><circle class="cls-5" cx="95.45" cy="692.19" r="39.75"/><circle class="cls-4" cx="269.29" cy="720.21" r="72.04"/><circle class="cls-2" cx="297.35" cy="347.86" r="48.94"/><circle class="cls-2" cx="555.07" cy="497.57" r="48.94"/><circle class="cls-5" cx="379.62" cy="489.57" r="39.75"/><circle class="cls-5" cx="456.78" cy="298.15" r="39.75"/><circle class="cls-3" cx="115.44" cy="289.46" r="69.44"/><circle class="cls-4" cx="129.85" cy="489.53" r="81.53"/><circle class="cls-4" cx="630.62" cy="326.17" r="72.04"/><circle class="cls-2" cx="658.68" cy="-46.18" r="48.94"/><circle class="cls-5" cx="740.96" cy="95.53" r="39.75"/><circle class="cls-4" cx="491.19" cy="95.49" r="81.53"/><circle class="cls-2" cx="-63.98" cy="-46.18" r="48.94"/><circle class="cls-2" cx="193.74" cy="103.53" r="48.94"/><circle class="cls-5" cx="18.29" cy="95.53" r="39.75"/><circle class="cls-4" cx="269.29" cy="-67.87" r="72.04"/></pattern></defs><g id="Layer_2" data-name="Layer 2"><g id="Layer_1-2" data-name="Layer 1"><rect class="cls-6" x="0.5" y="0.5" width="4928.5" height="1947"/></g></g></svg>