<svg xmlns="http://www.w3.org/2000/svg" xmlns:xlink="http://www.w3.org/1999/xlink" viewBox="0 0 629.32 624.38"><defs><style>.cls-1{fill:none;}.cls-2{clip-path:url(#clip-path);}.cls-3{fill:#7faedc;}.cls-4{fill:#127a3d;}.cls-5{fill:#127a3b;}</style><clipPath id="clip-path" transform="translate(0.2 12.04)"><circle class="cls-1" cx="306.17" cy="306.17" r="306.17"/></clipPath></defs><g id="Layer_2" data-name="Layer 2"><g id="Layer_1-2" data-name="Layer 1"><g class="cls-2"><circle class="cls-3" cx="306.37" cy="318.21" r="306.17"/><path class="cls-4" d="M399.17,12.17c-9.66.18-24.94,2-38,12-14,10.78-17,24.53-31,64-10.94,30.84-16.41,46.26-21,55-22.56,43-28.49,49.77-24,57,3.9,6.27,6.59,10.13,27-4,21.94-15.2,28.54-35.21,36-33,9.41,2.78,1.81,35.5,14,41,11.67,5.27,24-22.31,48-23,19.85-.58,36.45,17.6,56,39,24,26.32,24.35,39.09,41,44,15.05,4.43,33.61-.45,45-11,15.84-14.67,14.32-37,20-37,7.27.07,6.3,36.7,22,42,9.76,3.29,24.78-5.94,31-17,20.52-36.49-44.07-111.57-78-144C521.93,73.05,474.89,35.5,399.17,12.17Z" transform="translate(0.2 12.04)"/><path class="cls-4" d="M373.17,218.17c8,4.05,8.57,7.52,18,11,21.77,8,34.42-4.72,54-3,26.61,2.34,53.75,30.38,56,56,1.52,17.25-9.45,19.74-22,60-4.56,14.61-8.91,28.56-10,47-1.92,32.28,8.54,37.86,5,65-1.44,11.06-5.23,40.09-24,48-18.28,7.7-42.94-7.91-56-23-11.42-13.2-16.44-35.64-26-80-7.87-36.52-7.56-43.83-16-50-17.28-12.63-37.22,4.35-60-10-14.86-9.36-20.1-25.23-22-31-10.37-31.41,7.87-58.9,10-62C302.32,213.93,347.94,205.44,373.17,218.17Z" transform="translate(0.2 12.04)"/><path class="cls-4" d="M314.17-3.83c8.33,13.14-13.37,41-25,56-14.7,18.9-48.29,52.9-70,44-9.06-3.71-6.79-11.1-19-21-15-12.15-37.6-16.62-57-11-28.12,8.14-46.38,36.58-42,43,3.79,5.55,21.64-9.5,42-2,16.16,6,30.11,24.71,29,42-1.06,16.5-14.92,17.59-39,49-20.76,27.07-21.85,41.13-36,44-12.89,2.61-16.8-8.08-37-10-24-2.28-48,10-48,19,0,6.83,13.86,6.64,19,19,4.37,10.52-3.19,16.64-3,34,0,4.77.27,25.25,11,33,13.2,9.53,29.25-9.63,60-12,41.52-3.2,74.91,26.9,85,36,17,15.3,35.33,31.86,36,55,.48,16.85-8.86,21.82-21,68-4.38,16.67-5.31,24.19-2,32,4.59,10.82,13.43,13,31,26,5.35,4,34.91,25.84,32,32-3.38,7.17-53.85-.3-95-30-23.47-16.94-40-38.25-56-59-22.73-29.39-23.14-38.24-42-53-22.28-17.44-36-16.27-41-31-5.81-17.1,9.39-28.38,2-50-3.25-9.49-6.72-8.92-14-23-8-15.49-10.4-29-12-38-6.5-36.6,2.22-71,4-78,11.86-46.78,50.89-113.33,123-162C202-.95,300-26.18,314.17-3.83Z" transform="translate(0.2 12.04)"/><path class="cls-5" d="M576.17,462.17c-5.37-4.92-21.32,2.63-30,9-16.48,12.1-13.44,24.85-30,35-11.42,7-18.47,4.37-23,12-4.69,7.89-3.13,20.77,4,26,8.42,6.18,21.75-.41,29-4C564.11,521.39,585.73,470.93,576.17,462.17Z" transform="translate(0.2 12.04)"/></g></g></g></svg>