<svg xmlns="http://www.w3.org/2000/svg" viewBox="0 0 139.74 190.34"><defs><style>.cls-1{fill:#683b24;}.cls-2{fill:#e3cfb2;}.cls-3{fill:#8b4f30;}.cls-4{fill:#c1272d;}.cls-5{fill:#911d22;}</style></defs><g id="Layer_2" data-name="Layer 2"><g id="Layer_1-2" data-name="Layer 1"><rect class="cls-1" x="9.86" y="17.59" width="34.01" height="63"/><rect class="cls-2" x="9.86" y="77.83" width="120.52" height="112.52"/><polygon class="cls-3" points="69.87 90.17 139.74 90.17 104.8 45.09 69.87 0 34.94 45.09 0 90.17 69.87 90.17"/><path class="cls-4" d="M65.7,113.21a20.1,20.1,0,0,0-28.37,0h0a20.12,20.12,0,0,0,0,28.38l5,5,28.38-28.38Z"/><path class="cls-4" d="M104.15,141.59a20.13,20.13,0,0,0,0-28.38h0a20.12,20.12,0,0,0-28.38,0l-5,5,28.38,28.38Z"/><rect class="cls-4" x="50.67" y="126.55" width="40.13" height="40.13" transform="translate(-82.96 92.96) rotate(-45)"/><path class="cls-5" d="M70.74,118.36l-4.9-4.9a20.13,20.13,0,0,0-28.38,0h0a20.13,20.13,0,0,0,0,28.38l5,5,28.25-28.24Z"/><polygon class="cls-5" points="70.87 118.5 70.74 118.36 70.74 118.63 70.87 118.5"/><polygon class="cls-5" points="42.49 146.87 70.74 175.12 70.74 118.63 42.49 146.87"/></g></g></svg>