<svg xmlns="http://www.w3.org/2000/svg" viewBox="0 0 246.58 246.58"><defs><style>.cls-1{fill:#af1f24;}</style></defs><g id="Layer_2" data-name="Layer 2"><g id="Layer_1-2" data-name="Layer 1"><path class="cls-1" d="M202.76,27.27c-43.31,44.38-115.63,44.38-158.94,0A15.66,15.66,0,0,1,46,3.5L47,2.83a15.75,15.75,0,0,1,20.31,2c30.62,31,81.4,31,112,0a15.75,15.75,0,0,1,20.31-2l.95.67A15.66,15.66,0,0,1,202.76,27.27Z"/><path class="cls-1" d="M67.28,241.78c30.62-31,81.4-31,112,0a15.77,15.77,0,0,0,20.31,2l.95-.68a15.66,15.66,0,0,0,2.2-23.77c-43.31-44.38-115.63-44.38-158.94,0A15.66,15.66,0,0,0,46,243.08l.95.68A15.77,15.77,0,0,0,67.28,241.78Z"/><path class="cls-1" d="M27.27,43.82c44.38,43.31,44.38,115.63,0,158.94a15.66,15.66,0,0,1-23.77-2.2l-.67-.95a15.75,15.75,0,0,1,2-20.31c31-30.62,31-81.4,0-112A15.75,15.75,0,0,1,2.83,47L3.5,46A15.66,15.66,0,0,1,27.27,43.82Z"/><path class="cls-1" d="M241.78,179.3c-31-30.62-31-81.4,0-112a15.77,15.77,0,0,0,2-20.31l-.68-.95a15.66,15.66,0,0,0-23.77-2.2c-44.38,43.31-44.38,115.63,0,158.94a15.66,15.66,0,0,0,23.77-2.2l.68-.95A15.77,15.77,0,0,0,241.78,179.3Z"/></g></g></svg>