<svg xmlns="http://www.w3.org/2000/svg" viewBox="0 0 159.33 112.22"><defs><style>.cls-1{fill:#c1272d;}.cls-2{fill:#fff;}.cls-3{fill:#cd5257;}.cls-4,.cls-5{fill:none;stroke:#000;stroke-linecap:round;stroke-miterlimit:10;stroke-width:6px;}.cls-5{stroke-dasharray:13.17 13.17;}</style></defs><g id="Layer_2" data-name="Layer 2"><g id="Layer_1-2" data-name="Layer 1"><circle class="cls-1" cx="31.93" cy="64.27" r="31.93"/><path class="cls-1" d="M20.22,105.46,9.07,86.14a13.51,13.51,0,0,1,11.7-20.27H43.08A13.51,13.51,0,0,1,54.79,86.14L43.63,105.46A13.52,13.52,0,0,1,20.22,105.46Z"/><circle class="cls-2" cx="31.93" cy="64.27" r="19.64"/><circle class="cls-3" cx="131.93" cy="27.41" r="27.41"/><path class="cls-3" d="M120.22,59.89,114,49.05a13.51,13.51,0,0,1,11.71-20.27h12.52a13.51,13.51,0,0,1,11.7,20.27l-6.26,10.84A13.52,13.52,0,0,1,120.22,59.89Z"/><circle class="cls-2" cx="131.93" cy="27.41" r="16.86"/><path class="cls-4" d="M64.05,97.31a25,25,0,0,0,10.69-2.2"/><path class="cls-5" d="M84.83,86.81C89,81.79,92.38,75.88,97,71.29"/><path class="cls-4" d="M102.17,67.21a24.3,24.3,0,0,1,10.38-3.4"/></g></g></svg>