<svg xmlns="http://www.w3.org/2000/svg" viewBox="0 0 87 100.66"><defs><style>.cls-1{fill:#850039;}.cls-2{fill:#cd5257;}.cls-3{fill:#fff;}</style></defs><g id="Layer_2" data-name="Layer 2"><g id="Layer_1-2" data-name="Layer 1"><circle class="cls-1" cx="40" cy="40" r="40"/><path class="cls-1" d="M25.85,92.5l-15-26A16.33,16.33,0,0,1,25,42H55A16.33,16.33,0,0,1,69.15,66.5l-15,26A16.34,16.34,0,0,1,25.85,92.5Z"/><circle class="cls-1" cx="40" cy="40" r="24.61"/><circle class="cls-2" cx="47" cy="40" r="40"/><path class="cls-2" d="M32.85,92.5l-15-26A16.33,16.33,0,0,1,32,42H62A16.33,16.33,0,0,1,76.15,66.5l-15,26A16.34,16.34,0,0,1,32.85,92.5Z"/><circle class="cls-3" cx="47" cy="40" r="24.61"/></g></g></svg>