<svg xmlns="http://www.w3.org/2000/svg" viewBox="0 0 349.75 336.15"><defs><style>.cls-1{fill:#1a8619;}.cls-2{fill:#e4a96d;}.cls-3{fill:#ae753e;}.cls-4{fill:#2aa42d;}</style></defs><g id="Layer_2" data-name="Layer 2"><g id="Layer_1-2" data-name="Layer 1"><path class="cls-1" d="M212.76,9C254.64-7,322.69.86,300.88,13.29,194,74.24,218.54,71.08,174.6,136.42,161.41,156,143.48,92,149.65,66,158.25,29.77,196.69,15.1,212.76,9Z"/><path class="cls-1" d="M102.08,9.46C57.53,4.39-6.41,28.94,17.8,35.56,136.48,68,111.92,71.06,170.73,123.42c17.65,15.71,19.09-50.8,6.66-74.41C160.05,16.06,119.17,11.41,102.08,9.46Z"/><path class="cls-2" d="M169.68,95.15h11.83a24.16,24.16,0,0,1,24.09,24.08V312.06a24.16,24.16,0,0,1-24.09,24.09H166.68a24.16,24.16,0,0,1-24.08-24.09l3-192.83A24.16,24.16,0,0,1,169.68,95.15Z"/><rect class="cls-3" x="143.6" y="257.08" width="62" height="37.14" transform="translate(349.19 551.3) rotate(-180)"/><rect class="cls-3" x="145.6" y="195.58" width="60" height="37.14" transform="translate(351.19 428.3) rotate(-180)"/><rect class="cls-3" x="145.6" y="134.08" width="60" height="37.14" transform="translate(351.19 305.3) rotate(-180)"/><path class="cls-4" d="M61,114.75c-26.71,36-37.49,103.65-19.63,86,87.54-86.46,77.88-63.68,152.65-88.35,22.44-7.41-34.4-42-61.06-43C95.74,67.88,71.24,100.93,61,114.75Z"/><path class="cls-4" d="M285.73,112.75c26.7,36,37.49,103.65,19.63,86-87.55-86.46-77.88-63.68-152.65-88.35-22.44-7.41,34.4-42,61.06-43C251,65.88,275.48,98.93,285.73,112.75Z"/><path class="cls-4" d="M61.77,55.65C22.23,76.78-16.44,133.32,7.24,125,123.35,84.29,104.87,100.75,183,110.42c23.45,2.9-13.15-52.65-36.8-65C113.22,28.14,76.94,47.54,61.77,55.65Z"/><path class="cls-4" d="M276.52,40c42.78,13.4,91.31,61.75,66.49,58C221.35,79.64,242.57,92.37,167.6,116.42c-22.5,7.21,3.11-54.18,24-70.73C220.84,22.59,260.1,34.88,276.52,40Z"/></g></g></svg>