<svg xmlns="http://www.w3.org/2000/svg" viewBox="0 0 1919 1080"><defs><style>.cls-1{fill:#3d8036;}.cls-2{fill:#d0f7f5;}.cls-3{fill:#ff9dc4;}.cls-4{fill:#9d615c;}.cls-5{fill:#b52c2c;}.cls-6{fill:#ff5c50;}.cls-7{fill:#634257;}.cls-8{fill:#5f3d52;}.cls-9{fill:#f8d653;}.cls-10{fill:#bababa;}.cls-11{fill:#fff57a;}.cls-12{fill:#f1f1f1;}.cls-13{fill:#e5b94b;}.cls-14{fill:#f8ca38;}.cls-15{fill:#d9a445;}.cls-16{fill:#6a4657;}.cls-17{fill:#c89235;}.cls-18{fill:#e8be50;}</style></defs><g id="Layer_2" data-name="Layer 2"><g id="Layer_1-2" data-name="Layer 1"><rect class="cls-1" width="1919" height="1080"/><rect class="cls-2" width="1919" height="989"/><path class="cls-1" d="M1670.59,526.38a1.5,1.5,0,0,0,0-3,1.5,1.5,0,0,0,0,3Z"/><polygon class="cls-3" points="1480.28 539.53 1521.53 550.24 1521.53 528.82 1480.28 539.53"/><rect class="cls-4" x="1518.57" y="524.26" width="3.85" height="44.47" rx="1.93"/><polygon class="cls-3" points="1674.28 537.53 1715.53 548.24 1715.53 526.82 1674.28 537.53"/><rect class="cls-4" x="1712.57" y="522.26" width="3.85" height="44.47" rx="1.93"/><rect class="cls-5" x="1477" y="657" width="80" height="156"/><polygon class="cls-6" points="1771.5 662.5 1569.5 662.5 1514.5 564.5 1716.5 564.5 1771.5 662.5"/><polygon class="cls-5" points="1514.5 564.5 1458.5 662.5 1569.5 662.5 1514.5 564.5"/><polygon class="cls-7" points="1515 583 1467 664 1488 664 1521 595 1515 583"/><rect class="cls-7" x="1656.5" y="662.5" width="23" height="369"/><rect class="cls-4" x="1739.5" y="662.5" width="23" height="368"/><rect class="cls-8" x="1465.5" y="662.5" width="23" height="369"/><rect class="cls-4" x="1553.5" y="662.5" width="23" height="369"/><rect class="cls-4" x="1575.5" y="808.5" width="186" height="22"/><rect class="cls-8" x="1472.5" y="808.5" width="81" height="22"/><path class="cls-9" d="M1456.5,694.5c-6.7.2-16,.69-27,2-15.73,1.87-39,4.63-64,15-23.51,9.74-41.7,17.27-54,37-14.54,23.32-11.18,48.14-10,55,5,29.31,25,46.07,32,52,10.4,8.78,22.08,13.64,45,23,31.9,13,51.21,13.67,51,18-.26,5.47-31,9.18-46,11-22,2.66-25.45,1.09-30,4-9.2,5.88-40.32,85.8-13.94,105.34,5.25,3.89,11.17,4.08,21.94,3.66a295.73,295.73,0,0,0,122-32c33.58-17.39,42.32-28.67,46-34,12.89-18.67,14.54-37.84,15-44,1.94-26.25-8-45.53-12-53a108.93,108.93,0,0,0-29-34c-17.75-13.71-37.71-20.1-53-25-14.11-4.52-24.21-6.36-24-8,.32-2.44,22.7,1.59,52-4,20.13-3.84,33-6.3,42-17,14.94-17.76,11.94-49.6-4-68-2.86-3.3-12.09-14-28-16C1471.63,683.34,1459.2,692.43,1456.5,694.5Z"/><path class="cls-5" d="M1721.5,808.5c35.67,71.67,71.33,150.33,107,222,14.67.67,35.33.33,50,1,.49-1.26-1-33-11-44-13.06-14.37-31.24-16-33-16l-84-156C1743.5,808.5,1734.5,806.5,1721.5,808.5Z"/><path class="cls-10" d="M1794.5,1031.5l53-1c-.94-3.67-3-16.85-8-23a42.58,42.58,0,0,0-18-13l-100-186h-61c40.67,72,81.33,151,122,223"/><path class="cls-11" d="M1397.5,733.5l5,6c12.89-3.7,26.91-7.13,42-10a475.14,475.14,0,0,1,70-8l-4-9a334.83,334.83,0,0,0-113,21Z"/><path class="cls-11" d="M1385.5,738.5l5,5c-1.44.61-12.42,5.49-16,18-3.84,13.43,4.18,24,5,25l-5,5c-2.29-2.49-8.59-10-9-21C1365,757.62,1372.85,745.18,1385.5,738.5Z"/><path class="cls-11" d="M1410.5,807.5c14.21,4.34,26,8.58,35,12,21.52,8.21,29.43,12.82,33,15,6.39,3.9,12.89,7.86,20,15,6.36,6.38,15.81,15.86,19,31a52.34,52.34,0,0,1-1,25c1.33,2.67,2.67,5.33,4,8a43.32,43.32,0,0,0,6-13c4.62-17.08-3-32-6-38-9.56-18.83-25.28-28.09-37-35-3.72-2.19-9.17-5.16-41-17-14.94-5.56-27.37-10-36-13Z"/><path class="cls-11" d="M1380.5,950.5c20-4.22,35.08-7.36,43-9,37.81-7.84,54.11-11,75-21,6.55-3.14,11.73-6.07,15-8l-6-12q-8.31,3.59-17,7a530.5,530.5,0,0,1-105,29l-12,2-3,6Z"/><polygon class="cls-12" points="1813 989 1758.27 989.26 1758.27 977.74 1808 978 1813 989"/><path class="cls-13" d="M1319.5,739.5c1.06.39-5.28,10.82-4,25,2,22.51,21.82,37.79,36,49,23.4,18.5,47.85,26.42,62,31,31.59,10.21,40,12,40,12,13.36,2.84,25.41,4.25,35,14,4.77,4.85,8.68,8.3,8,12-1,5.68-21.3-4.36-36-2-13,2.08-14,7-28,14-17-4-49-12-99-39-14.44-7.8-31-30.16-33-59C1298.28,765,1317.79,738.87,1319.5,739.5Z"/><path class="cls-14" d="M1435.5,892.5c.65.89,6.82-4.44,15-7,15.56-4.86,33.52,1.85,45,11,18.64,14.84,20.58,36.35,21,41,.48,5.29,1.57,17.37-5,29-8.31,14.72-23.47,19.13-23,20s21.45-3.11,34-21c9.61-13.69,9.17-28.13,9-32-1-22-15.54-35.82-21-41s-15.73-14.67-32-17c-3.56-.51-17.08-2.26-30,5C1440.7,884.88,1434.83,891.58,1435.5,892.5Z"/><path class="cls-15" d="M1325.5,911.5a33.72,33.72,0,0,1,19-3c11.65,1.55,19.21,9.1,23,13,14,14.42,17.32,27.34,18.5,39.5,1.38,14.19,1.57,37-9.5,50.5a46.47,46.47,0,0,1-16,12c-7.22,3.48-19.23,7.2-27,5C1305.55,1020.57,1297.79,926.17,1325.5,911.5Z"/><ellipse class="cls-16" cx="1327.5" cy="970.5" rx="39" ry="59"/><path class="cls-5" d="M1641.5,808.5c35.67,71.67,71.33,150.33,107,222,14.67.67,35.33.33,50,1,.49-1.26-1-33-11-44-13.06-14.37-31.24-16-33-16l-84-156C1663.5,808.5,1654.5,806.5,1641.5,808.5Z"/><polygon class="cls-4" points="1520 593 1477 663 1559 663 1520 593"/><path class="cls-13" d="M1525.5,746.5c-.77-1.82-17.85.46-52,5,0,0-20.57,2.14-63,14-10.7,3-10.62,6.25-10,10,1,6,14.52,12.94,23,14,8,1,26,1,38,0C1521.5,784.5,1528.45,753.47,1525.5,746.5Z"/><path class="cls-17" d="M1504.5,682.5a47.22,47.22,0,0,1,19,10c14.07,12.27,16.08,29.25,17,37,.79,6.69,3.85,32.47-12,46-4.67,4-9.33,5.5-17,8-16.56,5.4-32.7,4.85-33,3-.23-1.38,8.61-1.55,18-8,14.2-9.75,18.31-26.07,19-29,4.46-19-3.78-34.08-7-40-3.8-7-7.68-10.5-16.5-14.5-16.29-7.39-35.15.41-35.5-.5S1478.85,675.81,1504.5,682.5Z"/><path class="cls-18" d="M1300,791c1.45,0-1.91-15.7,8-29,7.76-10.41,19.46-13.72,24-15,21.09-6,38.63,3.65,41,5a54.83,54.83,0,0,1,23,26h5a67.66,67.66,0,0,0-14-22c-5.84-6.12-19.16-17.72-39-20-6.24-.72-18.56-2-31,5a39.13,39.13,0,0,0-15,14C1292.31,771.2,1298.37,791,1300,791Z"/><path class="cls-14" d="M1396,778h5a40.64,40.64,0,0,1,7,12c8.86,24.11-6.81,56.42-31,71-6.51,3.92-17,11.76-29,9-.8-.18-11.81-2.88-17.5-12.5-1.18-2-2.78-5.39-2-6,1.36-1.07,7.57,8.27,15,11,15.63,5.75,35.75-15.59,39-19,5-5.2,19.45-20.42,19-43A54.34,54.34,0,0,0,1396,778Z"/></g></g></svg>