<svg xmlns="http://www.w3.org/2000/svg" viewBox="0 0 2000 841"><defs><style>.cls-1{fill:#3d8036;}.cls-2{fill:#d0f7f5;}.cls-3{fill:#ff9dc4;}.cls-4{fill:#9d615c;}.cls-5{fill:#b52c2c;}.cls-6{fill:#ff5c50;}.cls-7{fill:#634257;}.cls-8{fill:#5f3d52;}.cls-9{fill:#f8d653;}.cls-10{fill:#bababa;}.cls-11{fill:#fff57a;}.cls-12{fill:#f1f1f1;}.cls-13{fill:#e5b94b;}.cls-14{fill:#f8ca38;}.cls-15{fill:#d9a445;}.cls-16{fill:#6a4657;}.cls-17{fill:#c89235;}.cls-18{fill:#e8be50;}</style></defs><g id="Layer_2" data-name="Layer 2"><g id="Layer_1-2" data-name="Layer 1"><rect class="cls-1" y="41" width="2000" height="800" transform="translate(2000 882) rotate(180)"/><rect class="cls-2" width="2000" height="520" transform="translate(2000 520) rotate(180)"/><polygon class="cls-3" points="264.23 21.08 312.85 33.71 312.85 8.46 264.23 21.08"/><rect class="cls-4" x="309.37" y="3.09" width="4.54" height="52.42" rx="1.93"/><polygon class="cls-3" points="492.92 18.73 541.55 31.35 541.55 6.1 492.92 18.73"/><rect class="cls-4" x="538.07" y="0.73" width="4.54" height="52.42" rx="1.93"/><rect class="cls-5" x="260.37" y="159.56" width="94.31" height="183.9"/><polygon class="cls-6" points="607.53 166.04 369.41 166.04 304.57 50.52 542.7 50.52 607.53 166.04"/><polygon class="cls-5" points="304.57 50.52 238.56 166.04 369.41 166.04 304.57 50.52"/><polygon class="cls-7" points="305.16 72.33 248.58 167.81 273.33 167.81 312.24 86.47 305.16 72.33"/><rect class="cls-7" x="471.97" y="166.04" width="27.11" height="434.99"/><rect class="cls-4" x="569.81" y="166.04" width="27.11" height="433.81"/><rect class="cls-8" x="246.81" y="166.04" width="27.11" height="434.99"/><rect class="cls-4" x="350.55" y="166.04" width="27.11" height="434.99"/><rect class="cls-4" x="376.48" y="338.15" width="219.26" height="25.93"/><rect class="cls-8" x="255.06" y="338.15" width="95.49" height="25.93"/><path class="cls-9" d="M236.2,203.77c-7.9.23-18.85.81-31.83,2.35-18.54,2.21-46,5.47-75.44,17.69-27.72,11.48-49.16,20.36-63.66,43.61-17.14,27.49-13.18,56.75-11.79,64.84,5.94,34.55,29.43,54.31,37.72,61.3,12.27,10.35,26,16.08,53.05,27.11,37.61,15.36,60.37,16.12,60.12,21.22-.31,6.45-36.52,10.83-54.23,13-25.92,3.13-30,1.28-35.36,4.71-10.84,6.94-47.53,101.15-16.43,124.19,6.19,4.58,13.17,4.81,25.86,4.31,74.65-2.93,129.66-30.4,143.82-37.73,39.59-20.49,49.88-33.79,54.22-40.08,15.2-22,17.15-44.6,17.69-51.86,2.28-30.95-9.45-53.68-14.15-62.48a128.36,128.36,0,0,0-34.18-40.08c-20.93-16.16-44.46-23.7-62.48-29.47-16.64-5.33-28.55-7.5-28.3-9.43.38-2.88,26.77,1.87,61.3-4.72,23.74-4.53,38.91-7.43,49.52-20,17.6-20.94,14.07-58.47-4.72-80.16-3.37-3.89-14.26-16.46-33-18.86C254,190.61,239.38,201.32,236.2,203.77Z"/><path class="cls-5" d="M548.59,338.15c42,84.49,84.09,177.22,126.14,261.71,17.29.78,41.65.39,58.94,1.17.57-1.48-1.18-38.9-13-51.86-15.4-16.94-36.82-18.92-38.9-18.87l-99-183.89C574.53,338.15,563.92,335.8,548.59,338.15Z"/><path class="cls-10" d="M634.65,601l62.47-1.17c-1.11-4.33-3.59-19.87-9.43-27.12a50.12,50.12,0,0,0-21.22-15.32Q607.53,447.79,548.59,338.15H476.68C524.62,423,572.56,516.16,620.5,601"/><path class="cls-11" d="M166.65,249.74l5.89,7.07c15.19-4.35,31.73-8.4,49.51-11.78a559.17,559.17,0,0,1,82.52-9.43L299.86,225a394.58,394.58,0,0,0-133.21,24.75Z"/><path class="cls-11" d="M152.5,255.64l5.9,5.89c-1.7.72-14.65,6.47-18.86,21.22-4.53,15.83,4.93,28.25,5.89,29.47l-5.89,5.89c-2.7-2.93-10.13-11.82-10.61-24.75C128.36,278.17,137.59,263.51,152.5,255.64Z"/><path class="cls-11" d="M182,337c16.75,5.11,30.71,10.11,41.26,14.14,25.37,9.68,34.69,15.11,38.9,17.68,7.54,4.6,15.2,9.27,23.58,17.69,7.49,7.52,18.64,18.7,22.4,36.54a61.73,61.73,0,0,1-1.18,29.47q2.35,4.71,4.72,9.43a51.47,51.47,0,0,0,7.07-15.32c5.45-20.14-3.5-37.76-7.07-44.8-11.28-22.19-29.81-33.11-43.62-41.26-4.39-2.58-10.81-6.08-48.33-20-17.61-6.55-32.26-11.76-42.44-15.32Z"/><path class="cls-11" d="M146.61,505.55c23.53-5,41.35-8.67,50.69-10.61,44.57-9.24,63.78-13,88.41-24.76,7.73-3.69,13.83-7.15,17.68-9.43l-7.07-14.14q-9.79,4.23-20,8.25A625.58,625.58,0,0,1,152.5,489.05l-14.14,2.35-3.54,7.08Z"/><polygon class="cls-12" points="656.45 550.93 591.94 551.24 591.94 537.66 650.56 537.97 656.45 550.93"/><path class="cls-13" d="M74.7,256.81c1.24.46-6.22,12.76-4.72,29.48,2.39,26.53,25.73,44.54,42.44,57.76,27.59,21.81,56.4,31.15,73.09,36.54,37.23,12,47.15,14.15,47.15,14.15,15.76,3.35,30,5,41.26,16.5,5.63,5.72,10.24,9.79,9.43,14.15-1.24,6.7-25.11-5.14-42.43-2.36-15.29,2.46-16.51,8.25-33,16.5-20-4.71-57.77-14.14-116.71-46C74.18,384.37,54.7,358,52.3,324,49.68,286.86,72.69,256.07,74.7,256.81Z"/><path class="cls-14" d="M211.44,437.18c.77,1,8-5.24,17.69-8.26,18.34-5.73,39.51,2.19,53,13,22,17.5,24.26,42.85,24.76,48.33.56,6.24,1.85,20.48-5.89,34.19-9.8,17.36-27.67,22.55-27.12,23.58s25.29-3.67,40.08-24.76c11.33-16.14,10.82-33.15,10.61-37.72-1.15-25.92-18.32-42.23-24.75-48.33s-18.54-17.3-37.73-20c-4.2-.61-20.13-2.67-35.36,5.89C217.58,428.19,210.65,436.09,211.44,437.18Z"/><path class="cls-15" d="M81.77,459.57a39.8,39.8,0,0,1,22.4-3.53c13.74,1.82,22.64,10.72,27.11,15.32,16.53,17,20.42,32.23,21.81,46.57,1.63,16.72,1.86,43.67-11.2,59.53-6.75,8.2-15.26,12.41-18.86,14.14-8.51,4.11-22.67,8.5-31.83,5.9C58.26,588.15,49.11,476.86,81.77,459.57Z"/><ellipse class="cls-16" cx="84.13" cy="529.13" rx="45.97" ry="69.55"/><path class="cls-5" d="M454.28,338.15c42.05,84.49,84.09,177.22,126.14,261.71,17.29.78,41.65.39,58.94,1.17.58-1.48-1.18-38.9-13-51.86-15.39-16.94-36.82-18.92-38.9-18.87l-99-183.89C480.22,338.15,469.61,335.8,454.28,338.15Z"/><polygon class="cls-4" points="311.06 84.12 260.37 166.63 357.03 166.63 311.06 84.12"/><path class="cls-13" d="M317.54,265.07c-.91-2.15-21,.53-61.3,5.89,0,0-24.25,2.52-74.27,16.5-12.62,3.53-12.52,7.38-11.78,11.79,1.17,7.08,17.11,15.26,27.11,16.51,9.43,1.18,30.65,1.18,44.79,0C312.82,309.86,321,273.29,317.54,265.07Z"/><path class="cls-17" d="M292.78,189.62a55.62,55.62,0,0,1,22.4,11.79c16.59,14.46,19,34.48,20,43.62.94,7.89,4.54,38.28-14.14,54.22-5.51,4.7-11,6.49-20,9.43-19.53,6.36-38.55,5.73-38.91,3.54-.26-1.63,10.16-1.83,21.22-9.43,16.74-11.5,21.59-30.74,22.4-34.19,5.26-22.37-4.45-40.18-8.25-47.15-4.48-8.21-9.05-12.38-19.45-17.09-19.21-8.71-41.43.48-41.85-.59C235.73,202.55,262.55,181.73,292.78,189.62Z"/><path class="cls-18" d="M51.71,317.52c1.72,0-2.25-18.51,9.43-34.18,9.15-12.27,22.94-16.17,28.3-17.68,24.86-7,45.54,4.3,48.33,5.89a64.67,64.67,0,0,1,27.11,30.65h5.89a79.76,79.76,0,0,0-16.5-25.93c-6.89-7.22-22.58-20.89-46-23.58-7.36-.85-21.88-2.32-36.55,5.89a46.14,46.14,0,0,0-17.68,16.51C42.65,294.18,49.79,317.52,51.71,317.52Z"/><path class="cls-14" d="M164.88,302.2h5.89A47.8,47.8,0,0,1,179,316.35c10.44,28.42-8,66.5-36.55,83.69-7.67,4.63-20,13.87-34.18,10.61-.94-.21-13.93-3.39-20.63-14.73-1.4-2.37-3.28-6.36-2.36-7.08,1.6-1.25,8.93,9.75,17.68,13,18.42,6.78,42.15-18.38,46-22.4,5.84-6.13,22.93-24.06,22.39-50.69A63.84,63.84,0,0,0,164.88,302.2Z"/></g></g></svg>