<svg xmlns="http://www.w3.org/2000/svg" viewBox="0 0 178.93 142.4"><defs><style>.cls-1{fill:#850039;}.cls-2{fill:#d06694;}</style></defs><g id="Layer_2" data-name="Layer 2"><g id="Layer_1-2" data-name="Layer 1"><line class="cls-1" x1="10.5" y1="131.9" x2="51.6" y2="71.61"/><path class="cls-1" d="M10.49,142.4a10.39,10.39,0,0,1-5.9-1.83A10.5,10.5,0,0,1,1.83,126L42.93,65.7A10.5,10.5,0,0,1,60.28,77.53l-41.1,60.28A10.51,10.51,0,0,1,10.49,142.4Z"/><line class="cls-1" x1="52.6" y1="71.61" x2="84.12" y2="131.9"/><path class="cls-1" d="M84.13,142.4a10.5,10.5,0,0,1-9.32-5.64L43.3,76.48a10.5,10.5,0,0,1,18.61-9.73L93.42,127a10.51,10.51,0,0,1-9.29,15.37Z"/><line class="cls-1" x1="86.12" y1="131.9" x2="139.34" y2="44.46"/><path class="cls-1" d="M86.11,142.4a10.51,10.51,0,0,1-9-16L130.37,39A10.5,10.5,0,0,1,148.3,49.92L95.09,137.35A10.51,10.51,0,0,1,86.11,142.4Z"/><path class="cls-1" d="M167.12,62.53,168.42,12c.11-4.12-4.81-6.79-8.85-4.82L109.92,31.42a5.09,5.09,0,0,0-.24,9.27L158,67C162,69.12,167,66.65,167.12,62.53Z"/><path class="cls-1" d="M161.13,68.27a7,7,0,0,1-3.35-.85L109.44,41.13A5.68,5.68,0,0,1,106.31,36a5.77,5.77,0,0,1,3.39-5L159.35,6.71a7,7,0,0,1,6.86.39A5.55,5.55,0,0,1,168.92,12l-1.3,50.56a5.7,5.7,0,0,1-3,4.79A7.07,7.07,0,0,1,161.13,68.27ZM162.44,7a6,6,0,0,0-2.65.61L110.14,31.87A4.77,4.77,0,0,0,107.31,36a4.71,4.71,0,0,0,2.61,4.23l48.34,26.29a6,6,0,0,0,5.88-.07,4.72,4.72,0,0,0,2.48-3.95L167.92,12a4.57,4.57,0,0,0-2.25-4A6,6,0,0,0,162.44,7Z"/><line class="cls-2" x1="20.5" y1="125.9" x2="61.6" y2="65.61"/><path class="cls-2" d="M20.49,136.4a10.39,10.39,0,0,1-5.9-1.83A10.5,10.5,0,0,1,11.83,120L52.93,59.7A10.5,10.5,0,0,1,70.28,71.53l-41.1,60.28A10.51,10.51,0,0,1,20.49,136.4Z"/><line class="cls-2" x1="62.6" y1="65.61" x2="94.12" y2="125.9"/><path class="cls-2" d="M94.13,136.4a10.5,10.5,0,0,1-9.32-5.64L53.3,70.48a10.5,10.5,0,0,1,18.61-9.73L103.42,121a10.51,10.51,0,0,1-9.29,15.37Z"/><line class="cls-2" x1="96.12" y1="125.9" x2="149.34" y2="38.46"/><path class="cls-2" d="M96.11,136.4a10.51,10.51,0,0,1-9-16L140.37,33A10.5,10.5,0,0,1,158.3,43.92l-53.21,87.43A10.51,10.51,0,0,1,96.11,136.4Z"/><path class="cls-2" d="M177.12,56.53,178.42,6c.11-4.12-4.81-6.79-8.85-4.82L119.92,25.42a5.09,5.09,0,0,0-.24,9.27L168,61C172,63.12,177,60.65,177.12,56.53Z"/><path class="cls-2" d="M171.13,62.27a7,7,0,0,1-3.35-.85L119.44,35.13A5.68,5.68,0,0,1,116.31,30a5.77,5.77,0,0,1,3.39-5L169.35.71a7,7,0,0,1,6.86.39A5.55,5.55,0,0,1,178.92,6l-1.3,50.56a5.7,5.7,0,0,1-3,4.79A7.07,7.07,0,0,1,171.13,62.27ZM172.44,1a6,6,0,0,0-2.65.61L120.14,25.87A4.77,4.77,0,0,0,117.31,30a4.71,4.71,0,0,0,2.61,4.23l48.34,26.29a6,6,0,0,0,5.88-.07,4.72,4.72,0,0,0,2.48-3.95L177.92,6a4.57,4.57,0,0,0-2.25-4A6,6,0,0,0,172.44,1Z"/></g></g></svg>