<svg xmlns="http://www.w3.org/2000/svg" viewBox="0 0 590.08 507.24"><defs><style>.cls-1{fill:#bfffb8;}.cls-2{fill:#9d615c;}.cls-3{fill:#b52c2c;}.cls-4{fill:#ff5c50;}.cls-5{fill:#634257;}.cls-6{fill:#5f3d52;}.cls-7{fill:#f8d653;}.cls-8{fill:#bababa;}.cls-9{fill:#fff57a;}.cls-10{fill:#f1f1f1;}.cls-11{fill:#e5b94b;}.cls-12{fill:#f8ca38;}.cls-13{fill:#d9a445;}.cls-14{fill:#6a4657;}.cls-15{fill:#c89235;}.cls-16{fill:#e8be50;}</style></defs><g id="Layer_2" data-name="Layer 2"><g id="Layer_1-2" data-name="Layer 1"><polygon class="cls-1" points="191.78 17.27 233.03 27.97 233.03 6.56 191.78 17.27"/><rect class="cls-2" x="230.07" y="2" width="3.85" height="44.47" rx="1.93"/><polygon class="cls-1" points="385.78 15.27 427.02 25.97 427.02 4.56 385.78 15.27"/><rect class="cls-2" x="424.07" width="3.85" height="44.47" rx="1.93"/><rect class="cls-3" x="188.5" y="134.74" width="80" height="156"/><polygon class="cls-4" points="483 140.24 281 140.24 226 42.23 428 42.23 483 140.24"/><polygon class="cls-3" points="226 42.23 170 140.24 281 140.24 226 42.23"/><polygon class="cls-5" points="226.5 60.73 178.5 141.74 199.5 141.74 232.5 72.73 226.5 60.73"/><rect class="cls-5" x="368" y="140.24" width="23" height="361"/><rect class="cls-2" x="451" y="140.24" width="23" height="361"/><rect class="cls-6" x="177" y="140.24" width="23" height="361"/><rect class="cls-2" x="265" y="140.24" width="23" height="361"/><rect class="cls-2" x="287" y="286.24" width="186" height="22"/><rect class="cls-6" x="184" y="286.24" width="81" height="22"/><path class="cls-7" d="M168,172.24c-6.7.19-16,.69-27,2-15.73,1.86-39,4.63-64,15-23.51,9.74-41.7,17.27-54,37-14.54,23.31-11.18,48.13-10,55,5,29.3,25,46.06,32,52,10.4,8.77,22.08,13.63,45,23,31.9,13,51.21,13.67,51,18-.26,5.46-31,9.18-46,11-22,2.65-25.45,1.08-30,4C55.8,395.12,24.68,475,51.06,494.58c5.25,3.89,11.17,4.08,21.94,3.66a296.06,296.06,0,0,0,122-32c33.58-17.39,42.32-28.67,46-34,12.89-18.68,14.54-37.84,15-44,1.94-26.25-8-45.53-12-53a108.82,108.82,0,0,0-29-34c-17.75-13.71-37.71-20.11-53-25-14.11-4.52-24.21-6.36-24-8,.32-2.45,22.7,1.59,52-4,20.13-3.85,33-6.31,42-17,14.94-17.77,11.94-49.6-4-68-2.86-3.3-12.09-14-28-16C183.13,161.08,170.7,170.16,168,172.24Z"/><path class="cls-3" d="M433,286.24q53.51,107.49,107,215c14.67.66,35.33.33,50,1,.49-1.26-1-26-11-37-13.06-14.37-31.24-16.05-33-16l-84-156C455,286.24,446,284.24,433,286.24Z"/><path class="cls-8" d="M506,502.24l53-1a42,42,0,0,0-26-29l-100-186H372l122,216"/><path class="cls-9" d="M109,211.24l5,6c12.89-3.7,26.91-7.13,42-10a472.44,472.44,0,0,1,70-8l-4-9a334.83,334.83,0,0,0-113,21Z"/><path class="cls-9" d="M97,216.24c1.67,1.66,3.33,3.33,5,5-1.44.61-12.42,5.48-16,18-3.84,13.42,4.18,24,5,25-1.67,1.66-3.33,3.33-5,5-2.29-2.5-8.59-10-9-21C76.52,235.35,84.35,222.92,97,216.24Z"/><path class="cls-9" d="M122,285.24c14.21,4.33,26.05,8.58,35,12,21.52,8.21,29.43,12.82,33,15,6.39,3.89,12.89,7.86,20,15,6.36,6.37,15.81,15.86,19,31a52.34,52.34,0,0,1-1,25l4,8a43.32,43.32,0,0,0,6-13c4.62-17.09-3-32-6-38-9.56-18.83-25.28-28.1-37-35-3.72-2.2-9.17-5.16-41-17-14.94-5.56-27.37-10-36-13Q120,280.24,122,285.24Z"/><path class="cls-9" d="M92,428.24c20-4.22,35.08-7.36,43-9,37.81-7.84,54.11-11,75-21,6.55-3.14,11.73-6.07,15-8l-6-12q-8.31,3.58-17,7a530.5,530.5,0,0,1-105,29l-12,2-3,6Z"/><polygon class="cls-10" points="524.5 466.74 469.77 466.99 469.77 455.48 519.5 455.74 524.5 466.74"/><path class="cls-11" d="M31,217.24c1.06.38-5.28,10.82-4,25,2,22.51,21.82,37.79,36,49,23.4,18.5,47.85,26.42,62,31,31.59,10.21,40,12,40,12,13.36,2.84,25.41,4.24,35,14,4.77,4.85,8.68,8.3,8,12-1.05,5.68-21.3-4.37-36-2-13,2.08-14,7-28,14-17-4-49-12-99-39-14.44-7.8-31-30.16-33-59C9.78,242.72,29.29,216.61,31,217.24Z"/><path class="cls-12" d="M147,371.24c.65.88,6.82-4.45,15-7,15.56-4.87,33.52,1.85,45,11,18.64,14.84,20.58,36.34,21,41,.48,5.28,1.57,17.36-5,29-8.31,14.72-23.47,19.13-23,20s21.45-3.11,34-21c9.61-13.7,9.17-28.13,9-32-1-22-15.54-35.82-21-41s-15.73-14.68-32-17c-3.56-.52-17.08-2.26-30,5C152.2,363.62,146.33,370.32,147,371.24Z"/><path class="cls-13" d="M37,389.24a33.72,33.72,0,0,1,19-3c11.65,1.54,19.21,9.09,23,13,14,14.41,17.32,27.33,18.5,39.5,1.38,14.18,1.57,37-9.5,50.5a46.6,46.6,0,0,1-16,12c-7.22,3.48-19.23,7.2-27,5C17.05,498.31,9.29,403.9,37,389.24Z"/><ellipse class="cls-14" cx="39" cy="448.24" rx="39" ry="59"/><path class="cls-3" d="M353,286.24q53.51,107.49,107,215c14.67.66,35.33.33,50,1,.49-1.26-1-26-11-37-13.06-14.37-31.24-16.05-33-16l-84-156C375,286.24,366,284.24,353,286.24Z"/><polygon class="cls-2" points="231.5 70.73 188.5 140.74 270.5 140.74 231.5 70.73"/><path class="cls-11" d="M237,224.24c-.77-1.82-17.85.45-52,5,0,0-20.57,2.13-63,14-10.7,3-10.62,6.25-10,10,1,6,14.52,12.94,23,14,8,1,26,1,38,0C233,262.24,240,231.21,237,224.24Z"/><path class="cls-15" d="M216,160.24a47.09,47.09,0,0,1,19,10c14.07,12.27,16.08,29.24,17,37,.79,6.69,3.85,32.47-12,46-4.67,4-9.33,5.5-17,8-16.56,5.39-32.7,4.85-33,3-.23-1.38,8.61-1.56,18-8,14.2-9.76,18.31-26.08,19-29,4.46-19-3.78-34.09-7-40-3.8-7-7.68-10.5-16.5-14.5-16.29-7.39-35.15.41-35.5-.5S190.35,153.54,216,160.24Z"/><path class="cls-16" d="M11.5,268.74c1.45,0-1.91-15.71,8-29,7.76-10.41,19.46-13.72,24-15,21.09-6,38.63,3.65,41,5a54.83,54.83,0,0,1,23,26h5a67.56,67.56,0,0,0-14-22c-5.84-6.12-19.16-17.72-39-20-6.24-.72-18.56-2-31,5a39.13,39.13,0,0,0-15,14C3.81,248.93,9.87,268.73,11.5,268.74Z"/><path class="cls-12" d="M107.5,255.74h5a40.38,40.38,0,0,1,7,12c8.86,24.1-6.81,56.41-31,71-6.51,3.92-17,11.76-29,9-.8-.19-11.81-2.88-17.5-12.5-1.18-2-2.78-5.4-2-6,1.36-1.07,7.57,8.26,15,11,15.63,5.75,35.75-15.6,39-19,5-5.21,19.45-20.42,19-43A54.25,54.25,0,0,0,107.5,255.74Z"/></g></g></svg>