<svg xmlns="http://www.w3.org/2000/svg" xmlns:xlink="http://www.w3.org/1999/xlink" viewBox="0 0 4928.5 1947"><defs><style>.cls-1,.cls-2,.cls-3,.cls-4,.cls-5{fill:none;}.cls-2{stroke:#b1f1ee;}.cls-2,.cls-3,.cls-4,.cls-5{stroke-miterlimit:10;stroke-width:15px;}.cls-3{stroke:#bfffb8;}.cls-4{stroke:#8fa1dc;}.cls-5{stroke:#16a085;}.cls-6{fill:url(#New_Pattern);}</style><pattern id="New_Pattern" data-name="New Pattern" width="564.99" height="615.8" patternUnits="userSpaceOnUse" viewBox="0 0 564.99 615.8"><rect class="cls-1" width="564.99" height="615.8"/><circle class="cls-2" cx="403.55" cy="598.58" r="20.04"/><circle class="cls-3" cx="455.78" cy="566.54" r="16.27"/><circle class="cls-4" cx="318.43" cy="574.76" r="28.43"/><circle class="cls-5" cx="339.97" cy="651.9" r="33.38"/><circle class="cls-5" cx="527.99" cy="589.02" r="29.5"/><circle class="cls-2" cx="121.05" cy="598.58" r="20.04"/><circle class="cls-3" cx="173.29" cy="566.54" r="16.27"/><circle class="cls-4" cx="35.93" cy="574.76" r="28.43"/><circle class="cls-5" cx="57.48" cy="651.9" r="33.38"/><circle class="cls-5" cx="245.5" cy="589.02" r="29.5"/><circle class="cls-2" cx="474.17" cy="444.63" r="20.04"/><circle class="cls-2" cx="582.36" cy="505.96" r="20.04"/><circle class="cls-3" cx="506.85" cy="503.96" r="16.27"/><circle class="cls-3" cx="526.4" cy="412.59" r="16.27"/><circle class="cls-4" cx="389.05" cy="420.81" r="28.43"/><circle class="cls-5" cx="410.59" cy="497.95" r="33.38"/><circle class="cls-5" cx="598.62" cy="435.06" r="29.5"/><circle class="cls-2" cx="191.68" cy="444.63" r="20.04"/><circle class="cls-2" cx="299.87" cy="505.96" r="20.04"/><circle class="cls-3" cx="224.36" cy="503.96" r="16.27"/><circle class="cls-3" cx="243.91" cy="412.59" r="16.27"/><circle class="cls-4" cx="106.55" cy="420.81" r="28.43"/><circle class="cls-5" cx="128.1" cy="497.95" r="33.38"/><circle class="cls-5" cx="316.12" cy="435.06" r="29.5"/><circle class="cls-2" cx="17.38" cy="505.96" r="20.04"/><circle class="cls-5" cx="33.63" cy="435.06" r="29.5"/><circle class="cls-2" cx="544.79" cy="290.68" r="20.04"/><circle class="cls-3" cx="577.48" cy="350.01" r="16.27"/><circle class="cls-4" cx="459.67" cy="266.86" r="28.43"/><circle class="cls-5" cx="481.22" cy="344" r="33.38"/><circle class="cls-2" cx="262.3" cy="290.68" r="20.04"/><circle class="cls-2" cx="370.49" cy="352.01" r="20.04"/><circle class="cls-3" cx="294.98" cy="350.01" r="16.27"/><circle class="cls-3" cx="314.53" cy="258.64" r="16.27"/><circle class="cls-4" cx="177.18" cy="266.86" r="28.43"/><circle class="cls-5" cx="198.72" cy="344" r="33.38"/><circle class="cls-5" cx="386.75" cy="281.11" r="29.5"/><circle class="cls-2" cx="-20.2" cy="290.68" r="20.04"/><circle class="cls-2" cx="88" cy="352.01" r="20.04"/><circle class="cls-3" cx="12.49" cy="350.01" r="16.27"/><circle class="cls-3" cx="32.04" cy="258.64" r="16.27"/><circle class="cls-5" cx="104.25" cy="281.11" r="29.5"/><circle class="cls-4" cx="530.3" cy="112.91" r="28.43"/><circle class="cls-5" cx="551.84" cy="190.04" r="33.38"/><circle class="cls-2" cx="332.92" cy="136.73" r="20.04"/><circle class="cls-2" cx="441.12" cy="198.06" r="20.04"/><circle class="cls-3" cx="365.61" cy="196.06" r="16.27"/><circle class="cls-3" cx="385.16" cy="104.69" r="16.27"/><circle class="cls-4" cx="247.8" cy="112.91" r="28.43"/><circle class="cls-5" cx="269.35" cy="190.04" r="33.38"/><circle class="cls-5" cx="457.37" cy="127.16" r="29.5"/><circle class="cls-2" cx="50.43" cy="136.73" r="20.04"/><circle class="cls-2" cx="158.62" cy="198.06" r="20.04"/><circle class="cls-3" cx="83.11" cy="196.06" r="16.27"/><circle class="cls-3" cx="102.66" cy="104.69" r="16.27"/><circle class="cls-4" cx="-34.69" cy="112.91" r="28.43"/><circle class="cls-5" cx="-13.15" cy="190.04" r="33.38"/><circle class="cls-5" cx="174.87" cy="127.16" r="29.5"/><circle class="cls-2" cx="403.55" cy="-17.22" r="20.04"/><circle class="cls-2" cx="511.74" cy="44.11" r="20.04"/><circle class="cls-3" cx="436.23" cy="42.11" r="16.27"/><circle class="cls-5" cx="339.97" cy="36.09" r="33.38"/><circle class="cls-5" cx="527.99" cy="-26.79" r="29.5"/><circle class="cls-2" cx="121.05" cy="-17.22" r="20.04"/><circle class="cls-2" cx="229.25" cy="44.11" r="20.04"/><circle class="cls-3" cx="153.74" cy="42.11" r="16.27"/><circle class="cls-5" cx="57.48" cy="36.09" r="33.38"/><circle class="cls-5" cx="245.5" cy="-26.79" r="29.5"/></pattern></defs><g id="Layer_2" data-name="Layer 2"><g id="Layer_1-2" data-name="Layer 1"><rect class="cls-6" width="4928.5" height="1947"/></g></g></svg>